Coordinates
version=1
nRows=20
nColumns=34
inDegrees=yes

Units are S.I. units (second, meters, Newtons, ...)
Angles are in degrees.

endheader
time	pelvis_tilt	pelvis_list	pelvis_rotation	pelvis_tx	pelvis_ty	pelvis_tz	hip_flexion_r	hip_adduction_r	hip_rotation_r	knee_angle_r	ankle_angle_r	subtalar_angle_r	mtp_angle_r	hip_flexion_l	hip_adduction_l	hip_rotation_l	knee_angle_l	socket_flexion	socket_adduction	socket_rotation	socket_tx	socket_ty	socket_tz	pros_ankle_rx	pros_ankle_ry	pros_ankle_rz	pros_ankle_tx	pros_ankle_ty	pros_ankle_tz	foot_flex	lumbar_extension	lumbar_bending	lumbar_rotation
      0.29583333	      2.02604824	     -4.64126247	      0.58016911	     -0.36329300	      1.04838024	      0.36815923	      8.33913513	      0.33045723	    -10.47001978	    -62.22576567	     -0.10995421	      6.37997640	     15.80390547	      5.22188721	     -5.01059820	     -2.31878586	    -11.51318710	      5.91524173	      0.00000000	      0.00000000	      0.00000000	     -0.02350995	      0.00000000	      0.00000000	      0.00000000	      0.00000000	      0.00000000	      0.00000000	      0.00000000	      5.66521076	    -22.58075483	     -5.96092103	      0.94342509
      0.30000000	      2.27000229	     -4.65153193	      0.62519560	     -0.35757429	      1.04955363	      0.36782837	      8.56943991	      0.25488277	    -10.65526796	    -62.00219327	      0.79806678	      6.85080164	     15.63342602	      4.28588524	     -4.99478198	     -2.31965313	    -10.69944040	      6.30080380	      0.00000000	      0.00000000	      0.00000000	     -0.02330561	      0.00000000	      0.00000000	      0.00000000	      0.00000000	      0.00000000	      0.00000000	      0.00000000	      5.85154587	    -22.75815580	     -5.88729057	      0.78074784
      0.30416667	      2.32371736	     -4.78364072	      0.68640016	     -0.35214033	      1.05035194	      0.36754762	      9.03179162	      0.38003992	    -10.80586051	    -61.71500241	      1.46634854	      6.75921807	     15.67614289	      3.84724631	     -5.12371037	     -2.35167852	    -10.63672575	      6.24833795	      0.00000000	      0.00000000	      0.00000000	     -0.02310948	      0.00000000	      0.00000000	      0.00000000	      0.00000000	      0.00000000	      0.00000000	      0.00000000	      6.06589093	    -22.78296723	     -5.71288799	      0.74906612
      0.30833333	      2.38479301	     -4.94877115	      0.74572583	     -0.34676933	      1.05113381	      0.36727548	      9.48699778	      0.57230321	    -10.89518578	    -61.40904918	      2.35096033	      6.77125756	     15.72826549	      3.36425226	     -5.29317881	     -2.27133769	    -10.46406042	      6.23971880	      0.00000000	      0.00000000	      0.00000000	     -0.02300319	      0.00000000	      0.00000000	      0.00000000	      0.00000000	      0.00000000	      0.00000000	      0.00000000	      6.18599519	    -22.77436864	     -5.43058211	      0.66736209
      0.31250000	      2.42044753	     -5.08258268	      0.81185738	     -0.34132288	      1.05194752	      0.36697267	      9.93101107	      0.69230651	    -11.06203345	    -60.99878098	      3.01730173	      6.83798793	     15.75241004	      2.91170969	     -5.42219805	     -2.28571223	    -10.30367256	      6.22845023	      0.00000000	      0.00000000	      0.00000000	     -0.02275051	      0.00000000	      0.00000000	      0.00000000	      0.00000000	      0.00000000	      0.00000000	      0.00000000	      6.34659238	    -22.78545399	     -5.22529218	      0.59280191
      0.31666667	      2.53525565	     -5.23266652	      0.89312686	     -0.33578662	      1.05281139	      0.36656845	     10.26783056	      0.80763905	    -11.26887102	    -60.56920276	      3.89019547	      7.33793513	     15.63713186	      2.21090623	     -5.56229656	     -2.19489547	     -9.68152861	      6.50318511	      0.00000000	      0.00000000	      0.00000000	     -0.02268771	      0.00000000	      0.00000000	      0.00000000	      0.00000000	      0.00000000	      0.00000000	      0.00000000	      6.46045886	    -22.84224111	     -4.90309759	      0.38571137
      0.32083333	      2.61628506	     -5.34770919	      0.95789543	     -0.33039503	      1.05363774	      0.36630332	     10.64421420	      0.92765354	    -11.41240799	    -60.08598624	      4.60059408	      7.37265033	     15.60672488	      1.69300523	     -5.67607051	     -2.17645545	     -9.46968255	      6.51850038	      0.00000000	      0.00000000	      0.00000000	     -0.02241496	      0.00000000	      0.00000000	      0.00000000	      0.00000000	      0.00000000	      0.00000000	      0.00000000	      6.59384673	    -22.86464731	     -4.71513847	      0.33290486
      0.32500000	      2.64430468	     -5.36665132	      0.94876795	     -0.32526359	      1.05429967	      0.36607085	     11.15021834	      0.90552695	    -11.51695153	    -59.66038699	      4.72760263	      7.36557089	     15.60347520	      1.30744276	     -5.67813421	     -2.16092721	     -9.48150093	      6.37268066	      0.00000000	      0.00000000	      0.00000000	     -0.02201877	      0.00000000	      0.00000000	      0.00000000	      0.00000000	      0.00000000	      0.00000000	      0.00000000	      6.67385149	    -22.91498555	     -4.69877957	      0.32273470
      0.32916667	      2.71517733	     -5.66931836	      1.09591775	     -0.31972090	      1.05509466	      0.36570303	     11.43080193	      1.25622404	    -11.74930507	    -58.96275020	      5.87854784	      7.59527825	     15.53650862	      0.73125467	     -6.00470495	     -2.12204759	     -9.01376742	      6.58903183	      0.00000000	      0.00000000	      0.00000000	     -0.02208300	      0.00000000	      0.00000000	      0.00000000	      0.00000000	      0.00000000	      0.00000000	      0.00000000	      6.82409715	    -22.89160215	     -4.15681077	      0.17407279
      0.33333333	      2.76991910	     -5.79043643	      1.15969722	     -0.31432454	      1.05587381	      0.36542370	     11.78066173	      1.36741275	    -11.94241082	    -58.30446055	      6.33735384	      7.70026872	     15.46425863	      0.25033643	     -6.12411600	     -2.12240979	     -8.82279034	      6.59655538	      0.00000000	      0.00000000	      0.00000000	     -0.02173981	      0.00000000	      0.00000000	      0.00000000	      0.00000000	      0.00000000	      0.00000000	      0.00000000	      6.99781252	    -22.88695493	     -4.05880977	      0.09845435
      0.33750000	      2.79541800	     -5.90406433	      1.23937254	     -0.30893508	      1.05660059	      0.36519655	     12.14362949	      1.49155719	    -12.12074163	    -57.60124148	      6.83838540	      7.79427551	     15.39432545	     -0.19542702	     -6.24424030	     -2.13389467	     -8.61214502	      6.60885067	      0.00000000	      0.00000000	      0.00000000	     -0.02136067	      0.00000000	      0.00000000	      0.00000000	      0.00000000	      0.00000000	      0.00000000	      0.00000000	      7.10657641	    -22.91600886	     -3.85441338	      0.02975959
      0.34166667	      3.34132612	     -5.97629192	      1.26767761	     -0.30319292	      1.05827623	      0.36490053	     11.84742751	      1.52369714	    -12.34763009	    -56.79093341	      7.68040941	      8.48941817	     13.92768668	     -1.78290646	     -6.29902682	     -2.16247919	     -6.88886039	      7.54128307	      0.00000000	      0.00000000	      0.00000000	     -0.02090644	      0.00000000	      0.00000000	      0.00000000	      0.00000000	      0.00000000	      0.00000000	      0.00000000	      7.21332677	    -23.48174409	     -3.62105002	     -0.13007800
      0.34583333	      3.33718244	     -6.12765459	      1.34115853	     -0.29789224	      1.05886707	      0.36468272	     12.22404213	      1.71209902	    -12.51124367	    -56.01328663	      8.13501859	      8.48551221	     13.86023715	     -2.14559660	     -6.46266328	     -2.15654610	     -6.81564165	      7.47851251	      0.00000000	      0.00000000	      0.00000000	     -0.02059868	      0.00000000	      0.00000000	      0.00000000	      0.00000000	      0.00000000	      0.00000000	      0.00000000	      7.33842095	    -23.41308394	     -3.43069725	     -0.16600797
      0.35000000	      3.34508993	     -6.31919195	      1.43740840	     -0.29261836	      1.05947477	      0.36438462	     12.56116909	      1.93148840	    -12.71653259	    -55.15786772	      8.60713273	      8.53438649	     13.71140329	     -2.55075029	     -6.66776948	     -2.12405010	     -6.62363293	      7.49919119	      0.00000000	      0.00000000	      0.00000000	     -0.02034857	      0.00000000	      0.00000000	      0.00000000	      0.00000000	      0.00000000	      0.00000000	      0.00000000	      7.43838477	    -23.38975847	     -3.08144756	     -0.25162897
      0.35416667	      3.32149542	     -6.35947574	      1.48896451	     -0.28736645	      1.06003367	      0.36420472	     12.94080475	      1.98309533	    -12.87454584	    -54.32494858	      8.86927654	      8.53732956	     13.65641355	     -2.88012401	     -6.70473715	     -2.16503392	     -6.57829467	      7.41960565	      0.00000000	      0.00000000	      0.00000000	     -0.01985333	      0.00000000	      0.00000000	      0.00000000	      0.00000000	      0.00000000	      0.00000000	      0.00000000	      7.54701549	    -23.42090680	     -3.03997458	     -0.28963643
      0.35833333	      3.73083321	     -6.57018256	      1.60253449	     -0.28176523	      1.06132592	      0.36387896	     12.71840565	      2.22944223	    -13.13219334	    -53.29243967	      9.54573710	      8.85386982	     11.93943301	     -4.11935266	     -6.93559864	     -2.13583142	     -5.34236945	      8.05565689	      0.00000000	      0.00000000	      0.00000000	     -0.01947555	      0.00000000	      0.00000000	      0.00000000	      0.00000000	      0.00000000	      0.00000000	      0.00000000	      7.66368920	    -23.78947391	     -2.63789221	     -0.47366297
      0.36250000	      3.70658407	     -6.69911823	      1.69130773	     -0.27648746	      1.06179919	      0.36371588	     13.05008508	      2.41111187	    -13.30562754	    -52.35161896	      9.92486051	      8.83560507	     11.86028330	     -4.45001688	     -7.08454476	     -2.11152510	     -5.27647366	      7.98431996	      0.00000000	      0.00000000	      0.00000000	     -0.01915104	      0.00000000	      0.00000000	      0.00000000	      0.00000000	      0.00000000	      0.00000000	      0.00000000	      7.77639259	    -23.69900585	     -2.48668584	     -0.52278552
      0.36666667	      3.90662496	     -6.84848922	      1.78027564	     -0.27111904	      1.06267623	      0.36343934	     13.07172767	      2.60467118	    -13.50840742	    -51.29020942	     10.36919009	      8.93269710	     10.43599968	     -5.25654923	     -7.24451079	     -2.12607854	     -4.56721975	      8.31449484	      0.00000000	      0.00000000	      0.00000000	     -0.01870313	      0.00000000	      0.00000000	      0.00000000	      0.00000000	      0.00000000	      0.00000000	      0.00000000	      7.87713319	    -23.92435493	     -2.17607270	     -0.62068235
      0.37083333	      3.86274429	     -6.89659597	      1.85062933	     -0.26589017	      1.06308137	      0.36334415	     13.40600252	      2.69223839	    -13.67112783	    -50.31378180	     10.66321754	      8.89862985	     10.40469405	     -5.54571617	     -7.30469088	     -2.13628529	     -4.54710679	      8.22731990	      0.00000000	      0.00000000	      0.00000000	     -0.01822736	      0.00000000	      0.00000000	      0.00000000	      0.00000000	      0.00000000	      0.00000000	      0.00000000	      7.98005528	    -23.88886539	     -2.14300361	     -0.66784084
      0.37500000	      3.80934647	     -6.91506957	      1.89913663	     -0.26078367	      1.06342645	      0.36321371	     13.75265506	      2.73292646	    -13.84055883	    -49.30673746	     10.92407567	      8.86219646	     10.36926206	     -5.81750206	     -7.32115869	     -2.17499401	     -4.51923534	      8.16270895	      0.00000000	      0.00000000	      0.00000000	     -0.01774465	      0.00000000	      0.00000000	      0.00000000	      0.00000000	      0.00000000	      0.00000000	      0.00000000	      8.06057919	    -23.89833243	     -2.05743060	     -0.70774699
